<svg width="24" height="24" viewBox="0 0 24 24" fill="none" xmlns="http://www.w3.org/2000/svg">
<path d="M12.2607 4.74786C12.1909 4.6811 12.098 4.64384 12.0015 4.64384C11.9049 4.64384 11.812 4.6811 11.7422 4.74786L3.11255 12.9918C3.0759 13.0268 3.04674 13.069 3.02684 13.1156C3.00694 13.1623 2.99671 13.2125 2.99677 13.2632L2.99536 21.0004C2.99536 21.3982 3.1534 21.7797 3.4347 22.061C3.71601 22.3423 4.09754 22.5004 4.49536 22.5004H9.00005C9.19896 22.5004 9.38973 22.4213 9.53038 22.2807C9.67103 22.14 9.75005 21.9493 9.75005 21.7504V15.3754C9.75005 15.2759 9.78956 15.1805 9.85988 15.1102C9.93021 15.0399 10.0256 15.0004 10.125 15.0004H13.875C13.9745 15.0004 14.0699 15.0399 14.1402 15.1102C14.2105 15.1805 14.25 15.2759 14.25 15.3754V21.7504C14.25 21.9493 14.3291 22.14 14.4697 22.2807C14.6104 22.4213 14.8011 22.5004 15 22.5004H19.5029C19.9007 22.5004 20.2822 22.3423 20.5635 22.061C20.8448 21.7797 21.0029 21.3982 21.0029 21.0004V13.2632C21.0029 13.2125 20.9927 13.1623 20.9728 13.1156C20.9529 13.069 20.9237 13.0268 20.8871 12.9918L12.2607 4.74786Z" fill="#242424"/>
<path d="M23.0115 11.4445L19.5053 8.09016V3C19.5053 2.80109 19.4263 2.61032 19.2856 2.46967C19.145 2.32902 18.9542 2.25 18.7553 2.25H16.5053C16.3064 2.25 16.1156 2.32902 15.975 2.46967C15.8343 2.61032 15.7553 2.80109 15.7553 3V4.5L13.0403 1.90406C12.7862 1.64719 12.4084 1.5 12.0001 1.5C11.5933 1.5 11.2164 1.64719 10.9623 1.90453L0.992015 11.4436C0.700452 11.7249 0.66389 12.1875 0.929202 12.4922C0.995826 12.5691 1.0774 12.6317 1.16897 12.676C1.26053 12.7204 1.36017 12.7457 1.46181 12.7503C1.56346 12.755 1.66499 12.7389 1.76022 12.7031C1.85546 12.6672 1.9424 12.6124 2.01576 12.5419L11.7423 3.2475C11.8121 3.18074 11.905 3.14348 12.0015 3.14348C12.0981 3.14348 12.191 3.18074 12.2608 3.2475L21.9883 12.5419C22.1316 12.6793 22.3235 12.7543 22.522 12.7504C22.7205 12.7466 22.9093 12.6642 23.0472 12.5213C23.335 12.2231 23.3111 11.731 23.0115 11.4445Z" fill="#242424"/>
</svg>
